# xmcd
#
# Track frame offsets:
#	182
#	12830
#	29740
#	45347
#	60407
#	78825
#	96850
#	112242
#	127200
#	141922
#	157172
#	176087
#	189922
#	209050
#	224247
#	236307
#	254257
#	269500
#	286867
#	302450
#
# Disc length: 4217 seconds
#
# Revision: 2
# Processed by: cddbd v1.5.2PL0 Copyright (c) Steve Scherf et al.
# Submitted via: EZCDAudioConverter 4.0.5.1
#
DISCID=2d107714
DTITLE=Dolly Parton - The Essntial Dolly Parton
DYEAR=1995
DGENRE=Country
TTITLE0=9 to 5
TTITLE1=Single Women
TTITLE2=Think About Love
TTITLE3=But You Know I Love You
TTITLE4=Do I Ever Cross Your Mind
TTITLE5=Real Love
TTITLE6=You're The Only One
TTITLE7=Sweet Summer Lovin'
TTITLE8=Heartbreak Express
TTITLE9=Tie Our Love (in a Double Knot)
TTITLE10=Islands In The Stream  (duet with Kenny Rogers)
TTITLE11=Two Doors Down
TTITLE12=God Won't Get You
TTITLE13=Don't Call It Love
TTITLE14=To Daddy (original version)
TTITLE15=Starting Over Again
TTITLE16=Tennessee Homesick Blues
TTITLE17=Save The Last Dance For Me
TTITLE18=Old Flames Can't Hold A Candle To You
TTITLE19=I Will Always Love You
EXTD=
EXTT0=
EXTT1=
EXTT2=
EXTT3=
EXTT4=
EXTT5=
EXTT6=
EXTT7=
EXTT8=
EXTT9=
EXTT10=
EXTT11=
EXTT12=
EXTT13=
EXTT14=
EXTT15=
EXTT16=
EXTT17=
EXTT18=
EXTT19=
PLAYORDER=
